<svg width="484" height="104" viewBox="0 0 484 104" fill="none" xmlns="http://www.w3.org/2000/svg">
<g clip-path="url(#clip0_18_4)">
<path d="M1.07616 0.00600898C0.870414 0.0450621 0.67688 0.132385 0.511477 0.260853C0.346075 0.389321 0.213532 0.55524 0.124752 0.744944C0.0359722 0.934648 -0.00650803 1.14269 0.000807422 1.35202C0.00812288 1.56135 0.0650238 1.76595 0.16683 1.94899L16.0387 29.7303C16.1564 29.9373 16.3278 30.1087 16.5347 30.2264L30.712 38.3293H18.5187C18.2695 38.3292 18.0253 38.3995 17.8143 38.5321C17.6033 38.6648 17.434 38.8544 17.326 39.079C17.218 39.3037 17.1757 39.5543 17.2039 39.802C17.2321 40.0497 17.3297 40.2844 17.4854 40.479C26.128 51.2367 33.5866 59.0244 42.4506 64.0849C51.1057 69.026 61.0651 71.3376 74.4424 71.4435C77.811 76.4581 80.4575 81.1998 82.089 85.1689C82.2264 85.4974 82.4885 85.7578 82.8177 85.8931C83.1469 86.0284 83.5164 86.0276 83.845 85.8907C84.1736 85.7537 84.4344 85.4919 84.5701 85.1628C84.7059 84.8337 84.7055 84.4642 84.569 84.1354C82.8459 79.9434 80.1495 75.0299 76.7157 69.914C76.5924 28.6288 39.8292 0.00600898 1.32416 0.00600898C1.24167 -0.00175885 1.15864 -0.00175885 1.07616 0.00600898ZM3.72148 2.85855C14.4284 3.20201 24.9106 5.81258 34.3906 10.2999C34.3241 10.6264 34.3831 10.966 34.556 11.2508C37.0544 15.4726 38.9283 19.2748 41.1693 23.157C41.256 23.3093 41.3719 23.443 41.5103 23.5504C41.6487 23.6579 41.8069 23.7369 41.9759 23.7831C42.1449 23.8294 42.3213 23.8418 42.4951 23.8197C42.6689 23.7977 42.8367 23.7416 42.9888 23.6547C43.1409 23.5677 43.2744 23.4517 43.3816 23.3131C43.4888 23.1745 43.5677 23.0162 43.6137 22.8471C43.6597 22.678 43.6719 22.5015 43.6496 22.3276C43.6273 22.1538 43.571 21.9861 43.4839 21.8341C41.7042 18.751 40.1375 15.6284 38.2346 12.243C57.8399 22.9076 72.3172 41.9785 73.8637 65.9038C68.6148 58.7208 62.1242 51.375 55.0985 45.2746C54.9643 45.1549 54.8071 45.0639 54.6366 45.007C54.466 44.9501 54.2857 44.9287 54.1065 44.9439C53.8393 44.9599 53.5832 45.0566 53.3721 45.2212C53.161 45.3859 53.0048 45.6108 52.9242 45.8662C52.8436 46.1215 52.8423 46.3953 52.9206 46.6514C52.9988 46.9074 53.1529 47.1337 53.3625 47.3003C60.5825 53.5694 67.2682 61.2689 72.5411 68.6737C60.4975 68.3707 51.5541 66.2119 43.7732 61.7698C36.0244 57.3461 29.17 50.3412 21.4534 40.9751H35.7133C35.9955 40.9649 36.267 40.8647 36.4881 40.6891C36.7092 40.5135 36.8684 40.2717 36.9423 39.9992C37.0162 39.7266 37.001 39.4376 36.8988 39.1743C36.7967 38.9111 36.613 38.6874 36.3746 38.536L18.1881 28.118L3.72148 2.85855ZM64.8118 91.2873C58.8299 91.2873 55.6682 93.8985 52.9492 96.2069C50.2302 98.5151 47.9329 100.555 42.3266 100.548C37.9183 100.548 29.06 99.743 25.2974 99.2249C25.1156 99.1782 24.926 99.1706 24.7411 99.2028C24.5562 99.235 24.3803 99.3062 24.225 99.4116C24.0698 99.5171 23.9387 99.6544 23.8406 99.8144C23.7424 99.9744 23.6794 100.153 23.6558 100.34C23.6321 100.526 23.6484 100.715 23.7034 100.894C23.7585 101.074 23.8511 101.24 23.9751 101.38C24.0991 101.521 24.2516 101.634 24.4226 101.712C24.5935 101.789 24.779 101.829 24.9667 101.829C28.9148 102.373 37.6122 103.194 42.3266 103.194C48.6201 103.207 51.9455 100.559 54.6852 98.2327C57.4249 95.9069 59.5577 93.9331 64.8118 93.9331C69.2912 93.9331 74.3022 93.7354 81.345 97.6952C81.4946 97.8054 81.6656 97.8829 81.8471 97.9226C82.0286 97.9623 82.2163 97.9632 82.3982 97.9255C82.5801 97.8878 82.752 97.8122 82.9027 97.7036C83.0534 97.5951 83.1796 97.4561 83.273 97.2955C83.3664 97.1349 83.425 96.9563 83.4449 96.7716C83.4647 96.5869 83.4455 96.4001 83.3884 96.2233C83.3313 96.0465 83.2376 95.8838 83.1134 95.7456C82.9892 95.6075 82.8374 95.4971 82.6677 95.4215C75.1136 91.1743 69.2379 91.2873 64.8118 91.2873Z" fill="#00C2CB"/>
<path d="M111.042 25.8255H121.509V68.5312H111.042V25.8255ZM164.494 51.0861V68.5312H154.027V51.0861C154.027 46.2712 151.794 42.9915 146.7 42.9915C141.675 42.9915 139.373 46.341 139.373 51.0861V68.5312H128.906V51.0861C128.906 40.3399 136.302 33.292 146.7 33.292C157.516 33.292 164.494 40.6888 164.494 51.0861ZM169.308 67.4147V57.6454C173.914 59.041 179.706 59.3202 184.451 59.3202C186.335 59.3202 187.8 59.2504 188.847 59.0411C189.824 58.9015 190.312 58.5526 190.312 58.0641C190.312 57.8548 190.243 57.7152 190.103 57.5059C189.405 56.8081 187.87 56.4592 186.963 56.2498C186.056 56.0405 184.87 55.7614 183.404 55.4822C182.218 55.2729 180.822 54.9938 179.217 54.6449C173.774 53.4586 169.588 50.3883 169.588 44.5267C169.588 35.8739 178.031 33.292 185.149 33.292C189.615 33.292 194.081 33.9201 198.477 34.8272V44.6663C194.081 43.3404 189.126 42.9915 184.521 42.9915C182.706 42.9915 181.45 43.0613 180.683 43.2706C179.915 43.48 179.496 43.8289 179.496 44.2476C179.496 44.8756 180.124 45.2943 181.311 45.5036C182.497 45.7827 184.172 46.1317 186.195 46.4806C188.01 46.8295 189.754 47.1784 191.429 47.597C196.593 48.9229 200.291 51.7141 200.291 57.2965C200.291 66.6471 190.871 68.9499 183.334 68.9499C178.589 68.9499 173.914 68.3219 169.308 67.4147ZM204.897 33.6409H215.364V68.5312H204.897V33.6409ZM210.13 30.3613C206.571 30.3613 204.059 27.8491 204.059 24.2903C204.059 20.6618 206.571 18.2892 210.13 18.2892C213.759 18.2892 216.131 20.6618 216.131 24.2903C216.131 27.9887 213.828 30.3613 210.13 30.3613ZM243.974 47.597C243.974 43.8987 240.415 42.9915 237.345 42.9915C234.274 42.9915 230.715 43.8987 230.715 47.597C230.715 51.2954 234.274 52.2026 237.345 52.2026C240.415 52.2026 243.974 51.2954 243.974 47.597ZM241.182 75.1604C241.182 72.7878 239.508 71.8807 237.345 71.8807C235.181 71.8807 233.507 72.7878 233.507 75.1604C233.507 77.5329 235.181 78.44 237.345 78.44C239.508 78.44 241.182 77.5329 241.182 75.1604ZM250.603 75.1604C250.603 82.5571 243.695 85.6274 237.345 85.6274C230.925 85.6274 224.086 82.278 224.086 75.1604C224.086 69.9268 227.924 66.368 232.809 65.2515V61.4834C230.785 61.1345 229.041 60.5064 227.505 59.5993C222.97 57.2268 220.248 52.691 220.248 47.597C220.248 37.9673 228.831 33.292 237.345 33.292C241.113 33.292 244.323 33.9898 246.974 35.4552C249.696 34.1294 252.347 33.6409 255.348 33.6409H258.069V42.0844H256.534H254.999C254.511 42.1542 253.952 42.2239 253.394 42.3635C254.092 43.9685 254.441 45.713 254.441 47.597C254.441 55.0636 249.068 59.9482 242.229 61.4136V65.3213C246.904 66.6471 250.603 70.0664 250.603 75.1604ZM272.025 51.0861V68.5312H261.558V19.6848H272.025V36.8508C274.468 34.269 277.538 33.292 281.027 33.292C290.936 33.292 297.146 41.8053 297.146 51.0861V68.5312H286.679V51.0861C286.679 46.341 284.795 42.9915 279.701 42.9915C274.677 42.9915 272.025 46.2014 272.025 51.0861ZM323.244 34.8272V44.5267H313.475V51.0861C313.475 56.4592 317.034 59.1806 322.198 59.1806C322.826 59.1806 323.384 59.1108 323.872 59.0411C324.361 58.9713 324.78 58.9015 325.268 58.8317V68.5312C324.64 68.601 324.152 68.7405 323.803 68.8103C323.384 68.8801 322.686 68.8801 321.779 68.8801C311.242 68.8801 303.008 61.6927 303.008 51.0861V25.2673H313.475V34.8272H323.244ZM362.88 58.8317V68.5312H331.13V25.8255H341.597V58.8317H362.88ZM392.188 51.0861C391.908 45.9921 389.606 42.9915 384.302 42.9915C382.837 42.9915 381.581 43.2009 380.534 43.6196C377.324 45.0849 376.138 47.8064 376.138 51.1558C376.138 52.2723 376.278 53.319 376.626 54.2262C377.673 57.8548 380.813 59.1806 384.302 59.1806C389.606 59.1806 392.188 56.3196 392.188 51.0861ZM405.446 68.5312H394.979C394.281 66.7867 393.653 65.0422 393.234 63.2279C390.862 67.1356 387.233 68.8801 382.767 68.8801C372.789 68.8801 365.671 60.5064 365.671 50.9465C365.671 39.9212 373.905 33.292 384.302 33.292C395.397 33.292 402.375 40.4096 402.655 51.0861C402.724 51.9932 402.724 53.0399 402.724 54.296C402.724 59.1806 403.492 64.0652 405.446 68.5312ZM445.221 51.0861V68.5312H434.754V51.0861C434.754 46.2712 432.521 42.9915 427.427 42.9915C422.403 42.9915 420.1 46.341 420.1 51.0861V68.5312H409.633V51.0861C409.633 40.3399 417.029 33.292 427.427 33.292C438.243 33.292 445.221 40.6888 445.221 51.0861ZM461.061 46.8992C462.108 47.2481 463.294 47.5273 464.55 47.6668C465.806 47.8762 466.992 47.9459 468.109 47.9459C469.504 47.9459 473.063 47.6668 473.063 45.6432C473.063 43.48 469.993 43.4102 468.458 43.4102C465.387 43.4102 462.736 44.108 461.061 46.8992ZM480.809 57.6454V67.4147C476.901 68.3219 472.993 68.9499 468.946 68.9499C457.851 68.9499 449.617 62.4603 449.617 51.2256C449.617 40.1305 457.572 33.292 468.109 33.292C475.296 33.292 483.6 36.7113 483.6 44.8756C483.6 52.9701 474.808 55.9707 468.039 55.9707C465.457 55.9707 462.875 55.2729 460.503 54.296C461.898 58.2037 466.085 58.8317 469.714 58.8317C471.598 58.8317 473.482 58.7619 475.366 58.4828C477.11 58.3432 479.134 58.1339 480.809 57.6454Z" fill="#00C2CB"/>
</g>
<defs>
<clipPath id="clip0_18_4">
<rect width="483.6" height="103.194" fill="white"/>
</clipPath>
</defs>
</svg>
