<svg width="85" height="104" viewBox="0 0 85 104" fill="none" xmlns="http://www.w3.org/2000/svg">
<path d="M1.07616 0.00582588C0.870414 0.044879 0.67688 0.132202 0.511477 0.26067C0.346075 0.389138 0.213532 0.555057 0.124752 0.744761C0.0359722 0.934465 -0.00650803 1.1425 0.000807422 1.35183C0.00812288 1.56116 0.0650238 1.76577 0.16683 1.94881L16.0387 29.7301C16.1564 29.9371 16.3278 30.1085 16.5347 30.2262L30.712 38.3291H18.5187C18.2695 38.329 18.0253 38.3993 17.8143 38.532C17.6033 38.6646 17.434 38.8542 17.326 39.0789C17.218 39.3035 17.1757 39.5541 17.2039 39.8018C17.2321 40.0495 17.3297 40.2842 17.4854 40.4788C26.128 51.2366 33.5866 59.0242 42.4506 64.0847C51.1057 69.0258 61.0651 71.3374 74.4424 71.4433C77.811 76.4579 80.4575 81.1996 82.089 85.1688C82.2264 85.4972 82.4885 85.7576 82.8177 85.8929C83.1469 86.0283 83.5164 86.0274 83.845 85.8905C84.1736 85.7536 84.4344 85.4917 84.5701 85.1626C84.7059 84.8335 84.7055 84.464 84.569 84.1352C82.8459 79.9433 80.1495 75.0297 76.7157 69.9138C76.5924 28.6286 39.8292 0.00582588 1.32416 0.00582588C1.24167 -0.00194196 1.15864 -0.00194196 1.07616 0.00582588ZM3.72148 2.85837C14.4284 3.20183 24.9106 5.81239 34.3906 10.2997C34.3241 10.6262 34.3831 10.9658 34.556 11.2506C37.0544 15.4724 38.9283 19.2746 41.1693 23.1568C41.256 23.3091 41.3719 23.4428 41.5103 23.5502C41.6487 23.6577 41.8069 23.7367 41.9759 23.783C42.1449 23.8292 42.3213 23.8416 42.4951 23.8195C42.6689 23.7975 42.8367 23.7414 42.9888 23.6545C43.1409 23.5676 43.2744 23.4515 43.3816 23.3129C43.4888 23.1743 43.5677 23.016 43.6137 22.8469C43.6597 22.6778 43.6719 22.5013 43.6496 22.3275C43.6273 22.1537 43.571 21.986 43.4839 21.8339C41.7042 18.7508 40.1375 15.6282 38.2346 12.2428C57.8399 22.9075 72.3172 41.9783 73.8637 65.9036C68.6148 58.7206 62.1242 51.3748 55.0985 45.2744C54.9643 45.1548 54.8071 45.0637 54.6366 45.0068C54.466 44.95 54.2857 44.9285 54.1065 44.9437C53.8393 44.9597 53.5832 45.0564 53.3721 45.221C53.161 45.3857 53.0048 45.6106 52.9242 45.866C52.8436 46.1213 52.8423 46.3951 52.9206 46.6512C52.9988 46.9073 53.1529 47.1335 53.3625 47.3001C60.5825 53.5692 67.2682 61.2687 72.5411 68.6735C60.4975 68.3705 51.5541 66.2117 43.7732 61.7696C36.0244 57.3459 29.17 50.3411 21.4534 40.9749H35.7133C35.9955 40.9648 36.267 40.8645 36.4881 40.6889C36.7092 40.5133 36.8684 40.2716 36.9423 39.999C37.0162 39.7264 37.001 39.4374 36.8988 39.1742C36.7967 38.9109 36.613 38.6872 36.3746 38.5358L18.1881 28.1178L3.72148 2.85837ZM64.8118 91.2871C58.8299 91.2871 55.6682 93.8983 52.9492 96.2067C50.2302 98.5149 47.9329 100.555 42.3266 100.548C37.9183 100.548 29.06 99.7428 25.2974 99.2248C25.1156 99.178 24.926 99.1704 24.7411 99.2026C24.5562 99.2348 24.3803 99.306 24.225 99.4114C24.0698 99.5169 23.9387 99.6542 23.8406 99.8142C23.7424 99.9742 23.6794 100.153 23.6558 100.339C23.6321 100.526 23.6484 100.715 23.7034 100.894C23.7585 101.074 23.8511 101.239 23.9751 101.38C24.0991 101.521 24.2516 101.634 24.4226 101.712C24.5935 101.789 24.779 101.829 24.9667 101.829C28.9148 102.373 37.6122 103.193 42.3266 103.193C48.6201 103.207 51.9455 100.558 54.6852 98.2325C57.4249 95.9067 59.5577 93.9329 64.8118 93.9329C69.2912 93.9329 74.3022 93.7352 81.345 97.695C81.4946 97.8052 81.6656 97.8827 81.8471 97.9224C82.0286 97.9621 82.2163 97.9631 82.3982 97.9253C82.5801 97.8876 82.752 97.812 82.9027 97.7034C83.0534 97.5949 83.1796 97.4559 83.273 97.2953C83.3664 97.1348 83.425 96.9562 83.4449 96.7714C83.4647 96.5867 83.4455 96.3999 83.3884 96.2232C83.3313 96.0464 83.2376 95.8836 83.1134 95.7454C82.9892 95.6073 82.8374 95.4969 82.6677 95.4213C75.1136 91.1741 69.2379 91.2871 64.8118 91.2871Z" fill="#00C2CB"/>
</svg>
